<svg width="199" height="62" viewBox="0 0 199 62" fill="none" xmlns="http://www.w3.org/2000/svg">
<path d="M123.187 47.8704C111.748 56.3857 95.1687 60.9289 80.894 60.9289C60.8785 60.9289 42.8594 53.4521 29.2273 41.0166C28.1563 40.0388 29.1159 38.7061 30.4012 39.4676C45.1129 48.1127 63.3033 53.3136 82.0935 53.3136C94.766 53.3136 108.707 50.6656 121.525 45.1704C123.461 44.3397 125.08 46.4512 123.187 47.8704Z" fill="#FF9900"/>
<path d="M127.94 42.3751C126.484 40.4885 118.275 41.4837 114.591 41.9251C113.469 42.0635 113.297 41.077 114.308 40.3674C120.846 35.7203 131.573 37.0617 132.824 38.6193C134.075 40.1857 132.499 51.0461 126.355 56.2297C125.413 57.0259 124.513 56.6018 124.933 55.5461C126.312 52.0673 129.406 44.2702 127.94 42.3751Z" fill="#FF9900"/>
<path d="M114.851 7.56092V3.04366C114.851 2.36001 115.365 1.90137 115.982 1.90137H136.006C136.648 1.90137 137.162 2.36867 137.162 3.04366V6.91189C137.154 7.56092 136.614 8.40898 135.654 9.75031L125.278 24.7126C129.134 24.6175 133.204 25.1973 136.7 27.1876C137.488 27.6376 137.702 28.2953 137.762 28.9443V33.7645C137.762 34.4222 137.042 35.1923 136.288 34.7943C130.128 31.5318 121.945 31.177 115.133 34.8289C114.439 35.2096 113.711 34.4481 113.711 33.7904V29.2126C113.711 28.477 113.72 27.2222 114.448 26.1059L126.469 8.69456H116.007C115.365 8.69456 114.851 8.23591 114.851 7.56092Z" fill="#221F1F"/>
<path d="M41.8052 35.7459H35.7132C35.1305 35.7026 34.6678 35.2613 34.625 34.6988V3.12127C34.625 2.48955 35.1477 1.98763 35.7989 1.98763H41.4796C42.0708 2.01357 42.5421 2.47224 42.5849 3.04338V7.17123H42.6963C44.1786 3.18184 46.9633 1.32129 50.7162 1.32129C54.5291 1.32129 56.9111 3.18184 58.6247 7.17123C60.0985 3.18184 63.4486 1.32129 67.0387 1.32129C69.5921 1.32129 72.3853 2.3857 74.0904 4.77413C76.0183 7.43083 75.6241 11.2904 75.6241 14.674L75.6156 34.6036C75.6156 35.2353 75.0929 35.7459 74.4417 35.7459H68.3583C67.7499 35.7026 67.2615 35.2094 67.2615 34.6036V17.8673C67.2615 16.5346 67.3815 13.2115 67.0902 11.9481C66.636 9.82793 65.2737 9.23081 63.5086 9.23081C62.0349 9.23081 60.4926 10.226 59.8671 11.8183C59.2416 13.4106 59.3016 16.0759 59.3016 17.8673V34.6036C59.3016 35.2353 58.7789 35.7459 58.1278 35.7459H52.0443C51.4274 35.7026 50.9475 35.2094 50.9475 34.6036L50.939 17.8673C50.939 14.3452 51.513 9.16158 47.1861 9.16158C42.8077 9.16158 42.9791 14.2154 42.9791 17.8673V34.6036C42.9791 35.2353 42.4564 35.7459 41.8052 35.7459Z" fill="#221F1F"/>
<path d="M154.397 1.32129C163.436 1.32129 168.329 9.16158 168.329 19.1307C168.329 28.7623 162.922 36.4036 154.397 36.4036C145.52 36.4036 140.688 28.5633 140.688 18.7932C140.688 8.96255 145.58 1.32129 154.397 1.32129ZM154.448 7.76833C149.958 7.76833 149.676 13.9471 149.676 17.798C149.676 21.6576 149.616 29.896 154.397 29.896C159.118 29.896 159.341 23.2499 159.341 19.1999C159.341 16.5346 159.229 13.35 158.432 10.8231C157.747 8.62506 156.385 7.76833 154.448 7.76833Z" fill="#221F1F"/>
<path d="M180.054 35.7459H173.988C173.38 35.7026 172.891 35.2094 172.891 34.6036L172.883 3.01742C172.934 2.43762 173.44 1.98763 174.057 1.98763H179.703C180.234 2.01357 180.671 2.37705 180.791 2.87031V7.6991H180.903C182.608 3.38088 184.998 1.32129 189.205 1.32129C191.939 1.32129 194.603 2.31647 196.317 5.0424C197.911 7.56929 197.911 11.8183 197.911 14.8731V34.7507C197.842 35.3046 197.337 35.7459 196.737 35.7459H190.628C190.071 35.7026 189.608 35.2873 189.548 34.7507V17.599C189.548 14.1461 189.942 9.09235 185.735 9.09235C184.253 9.09235 182.891 10.0962 182.214 11.6192C181.357 13.549 181.245 15.4702 181.245 17.599V34.6036C181.237 35.2353 180.706 35.7459 180.054 35.7459Z" fill="#221F1F"/>
<path d="M98.888 20.6626V19.3299C94.4839 19.3299 89.8314 20.2818 89.8314 25.526C89.8314 28.1827 91.1937 29.9827 93.5328 29.9827C95.2465 29.9827 96.7802 28.9182 97.7484 27.1875C98.948 25.0587 98.888 23.0596 98.888 20.6626ZM105.031 35.6595C104.629 36.023 104.046 36.0489 103.592 35.8066C101.57 34.1105 101.21 33.323 100.096 31.7047C96.7545 35.1489 94.3897 36.1787 90.0541 36.1787C84.9303 36.1787 80.9375 32.9855 80.9375 26.5904C80.9375 21.5972 83.6194 18.1962 87.4322 16.5347C90.7396 15.0636 95.3579 14.804 98.888 14.3973V13.6011C98.888 12.1386 98.9994 10.4079 98.1511 9.14443C97.4057 8.01078 95.9834 7.54348 94.7324 7.54348C92.4104 7.54348 90.3369 8.74635 89.8314 11.2386C89.7285 11.7925 89.3258 12.3377 88.7775 12.3636L82.8654 11.7232C82.3684 11.6107 81.82 11.204 81.9571 10.4338C83.3195 3.1993 89.7885 1.01855 95.5807 1.01855C98.5453 1.01855 102.418 1.8147 104.757 4.08198C107.722 6.87714 107.439 10.6069 107.439 14.6655V24.2539C107.439 27.1356 108.622 28.399 109.735 29.9567C110.13 30.5105 110.215 31.1769 109.718 31.5922C108.476 32.6394 106.265 34.5864 105.049 35.6768L105.031 35.6595Z" fill="#221F1F"/>
<path d="M19.0208 20.6626V19.3299C14.6167 19.3299 9.96417 20.2818 9.96417 25.526C9.96417 28.1827 11.3265 29.9827 13.6657 29.9827C15.3793 29.9827 16.913 28.9182 17.8813 27.1875C19.0808 25.0587 19.0208 23.0596 19.0208 20.6626ZM25.1643 35.6595C24.7616 36.023 24.1789 36.0489 23.7248 35.8066C21.7027 34.1105 21.3428 33.323 20.229 31.7047C16.8873 35.1489 14.5225 36.1787 10.1869 36.1787C5.06312 36.1787 1.07031 32.9855 1.07031 26.5904C1.07031 21.5972 3.75218 18.1962 7.56506 16.5347C10.8724 15.0636 15.4907 14.804 19.0208 14.3973V13.6011C19.0208 12.1386 19.1322 10.4079 18.284 9.14443C17.5385 8.01078 16.1162 7.54348 14.8652 7.54348C12.5432 7.54348 10.4697 8.74635 9.96417 11.2386C9.86135 11.7925 9.45864 12.3377 8.91028 12.3636L2.99817 11.7232C2.50121 11.6107 1.95284 11.204 2.08993 10.4338C3.45229 3.1993 9.92133 1.01855 15.7135 1.01855C18.6781 1.01855 22.551 1.8147 24.8901 4.08198C27.8547 6.87714 27.572 10.6069 27.572 14.6655V24.2539C27.572 27.1356 28.7544 28.399 29.8683 29.9567C30.2624 30.5105 30.3481 31.1769 29.8511 31.5922C28.6087 32.6394 26.3981 34.5864 25.1814 35.6768L25.1643 35.6595Z" fill="#221F1F"/>
</svg>
